# xmcd
#
# Track frame offsets:
# 150
# 35292
# 52715
# 67867
# 83482
# 99896
# 112594
# 140181
# 158678
# 186092
# 203044
# 219109
#
# Disc length: 3087 seconds
#
# Revision: 0
# Processed by: cddbd v1.5PL3 Copyright (c) Steve Scherf et al.
# Submitted via: Audion 3.0.2 (http://www.panic.com/audion/)
#
DISCID=860c0d0c
DTITLE=dafs - as
DYEAR=1900
DGENRE=
TTITLE0=smoke
TTITLE1=sdkl;fh
TTITLE2=hsla
TTITLE3=hsldah;slk
TTITLE4=hlkals
TTITLE5=lkkssha
TTITLE6=laak
TTITLE7=laaak
TTITLE8=laaaak
TTITLE9=laaaaak
TTITLE10=akaasdl
TTITLE11=lkshalfhkask
EXTD=
EXTT0=
EXTT1=
EXTT2=
EXTT3=
EXTT4=
EXTT5=
EXTT6=
EXTT7=
EXTT8=
EXTT9=
EXTT10=
EXTT11=
PLAYORDER=
